<svg width="412" height="427" fill="none" xmlns="http://www.w3.org/2000/svg"><g clip-path="url(#clip0_540_596)"><path fill-rule="evenodd" clip-rule="evenodd" d="M47.6 274.1l-14.8.3-7.5.1c-2.5.1-5 .1-7.6.1h-.4v-.5l-.1-12.6v-.5h.5l15 .1c5 0 10 .1 14.9.1h.3v.3c0 2.2-.1 4.3-.1 6.4l-.2 6.2zm0 0l-.2-6.4c0-2-.033-4-.1-6-4.9.1-9.8.2-14.7.2l-14.4.1-.1 11.6c2.3.1 4.7.1 7 .1l7.4.1 15.1.3zm-.3-12.3c.134-.067.233-.1.3-.1l-.3-.2v.3zm-29.1.2v-.5l-.5.5h.5zm0 11.7h-.5l.5.4v-.4zM31 290.1l-14.9.3-7.5.1h-8v-13.6h.5l14.9.1c5 0 10 .1 15 .2h.2v.2c0 2.2-.1 4.3-.1 6.4l-.1 6.3zm0 0l-.1-6.4c-.067-2-.133-3.967-.2-5.9-4.9 0-9.8.1-14.6.1l-14.5.1v11.7h6.9l7.4.1 15.1.3zm-.2-12.3h.2l-.2-.3v.3zm-29.2.2v-.5l-.5.5h.5zm0 11.7h-.5l.5.4v-.4zM31 16.7l-14.9.3-7.5.1c-2.5.1-5 0-7.5.1H.6V3.6H16c5 0 10 .2 15 .2h.2v.3c0 2.1-.1 4.2-.1 6.4l-.1 6.2zm0 0l-.1-6.4-.2-6c-4.9.1-9.8.2-14.6.2H1.6v11.7c2.3 0 4.6 0 6.9.1l7.4.1 15.1.3zm-.2-12.4h.2l-.2-.3v.3zm-29.2.2V4l-.5.5h.5zm0 11.7h-.5l.5.5v-.5zm407.3.5l-14.8.3-7.5.1c-2.5.1-5 0-7.6.1h-.4v-.5l-.1-12.6v-.5H394c5 0 10 .2 14.9.2h.3v.3c0 2.1-.1 4.2-.1 6.4l-.2 6.2zm0 0l-.2-6.4c0-2-.033-4-.1-6-4.9.1-9.8.2-14.7.2h-14.4l-.1 11.7c2.3 0 4.7 0 7 .1l7.4.1 15.1.3zm-.3-12.4h.3l-.3-.3v.3zm-29.1.2V4l-.5.5h.5zm0 11.7h-.5l.5.5v-.5zm12.8 16.4l-14.9.3-7.5.1c-2.5.1-5 .1-7.5.1h-.5V19.5h.5l14.9.1c5 0 10 .1 15 .1h.2v.3c0 2.1-.1 4.3-.1 6.4l-.1 6.2zm0 0l-.1-6.4-.2-6c-4.9.1-9.8.2-14.6.2l-14.5.1v11.6c2.3.1 4.6.1 6.9.1l7.4.1 15.1.3zm-.2-12.4h.2l-.2-.2v.2zm-29.2.3V20l-.5.5h.5zm0 11.7h-.5l.5.4v-.4zm-47.2 148.2l-14.8.3-7.6.1c-2.5.1-5 .1-7.5.1h-.4l-.1-.5v-13.1h.5l14.9.1c5 0 10 .1 15 .1h.3v.3c-.1 2.1-.1 4.3-.2 6.4l-.1 6.2zm0 0l-.1-6.4c-.066-2-.1-4-.1-6-4.9.1-9.8.2-14.7.2h-14.5v11.7c2.3.1 4.6 0 6.9.1l7.5.1 15 .3zm-.3-12.4h.3l-.3-.2v.2zm-29.1.3v-.5l-.5.5h.5zm-.1 11.7h-.4l.4.4v-.4zm12.8 16.4l-14.8.2-7.5.2h-8v-.4l-.1-12.7v-.5h.5l15 .1c4.9 0 9.9.1 14.9.2h.3v.2c0 2.2-.1 4.3-.1 6.4l-.2 6.3zm0 0l-.2-6.4c-.067-2-.1-3.967-.1-5.9-4.9 0-9.8.1-14.7.1l-14.4.1-.1 11.7h7l7.4.1 15.1.3zm-.3-12.3h.3l-.3-.3v.3zm-29.1.2v-.5l-.5.5h.5zm-.1 11.7h-.4l.4.4v-.4zm12.9-15.6l-14.8.3-7.5.1c-2.6.1-5.1.1-7.6.1h-.4v-.5l-.1-12.6v-.5h.5l15 .1c4.9 0 9.9.1 14.9.1h.3v.3c0 2.1-.1 4.3-.2 6.4l-.1 6.2zm0 0l-.1-6.4c-.067-2-.1-4-.1-6-4.9.1-9.8.2-14.7.2H253v11.7c2.3.1 4.6 0 6.9.1l7.5.1 15 .3zm-.3-12.4h.3l-.3-.2v.2zm-29.1.3v-.5l-.5.5h.5zm-.1 11.7h-.4l.4.4v-.4zm156 110.1l-14.8.3-7.5.1h-8v-.4l-.1-12.7v-.5h.5l15 .1c5 0 10 .1 14.9.2h.3v.2c0 2.2-.1 4.3-.1 6.4l-.2 6.3zm0 0l-.2-6.4c0-2-.033-3.967-.1-5.9-4.9 0-9.8.1-14.7.1l-14.4.1-.1 11.7h7l7.4.1 15.1.3zm-.3-12.3h.3l-.3-.3v.3zm-29.1.2v-.5l-.5.5h.5zm0 11.7h-.5l.5.4v-.4zM154.9 54.3l-14.8.3-7.5.1h-8v-.4l-.1-12.7v-.5h.5l15 .1c5 0 9.9.1 14.9.2h.3v.2c0 2.2-.1 4.3-.1 6.4l-.2 6.3zm0 0l-.2-6.4c-.067-2-.1-3.967-.1-5.9-4.9 0-9.8.1-14.7.1l-14.4.1-.1 11.7h7l7.4.1 15.1.3zm-.3-12.3h.3l-.3-.3v.3zm-29.1.2v-.5l-.5.5h.5zm0 11.7h-.5l.5.4v-.4zm249.8 82.3c-.8-.6-1.9-.5-2.8 0-.2.133-.433.267-.7.4-.266.133-.5.267-.7.4-.9.4-1.5 1.3-1.6 2.3l-.1 3.4-11.1-.4.1-3.4c0-1-.6-1.9-1.4-2.4a11.28 11.28 0 01-1.5-.9c-.8-.5-1.8-.6-2.7-.1l-3 1.6-5.3-9.9 3-1.6c.9-.5 1.4-1.4 1.4-2.4v-1.7c.1-1-.299-1.9-1.199-2.5l-2.901-1.8 5.901-9.4 2.899 1.8c.9.5 1.9.5 2.8-.1.2-.133.434-.267.7-.4.267-.133.5-.233.7-.3.9-.5 1.6-1.3 1.6-2.3l.1-3.5 11.1.4-.1 3.4c0 1 .6 1.9 1.4 2.4.534.267 1.034.567 1.5.9.8.6 1.8.6 2.7.2l3-1.7 5.3 9.9-3 1.6c-.9.5-1.4 1.4-1.4 2.4v1.7c-.1 1 .401 2 1.201 2.5l2.899 1.8-5.899 9.5-2.901-1.8zm-2.8-17.7c-2.4-4.4-7.9-6.1-12.4-3.7-4.4 2.4-6.1 7.9-3.7 12.4 2.4 4.4 7.9 6.1 12.4 3.7 4.4-2.4 6.1-7.9 3.7-12.4z" fill="#EBEBEB"/><path fill-rule="evenodd" clip-rule="evenodd" d="M53.6 243.7c-.8-.5-1.9-.5-2.8 0-.2.133-.433.267-.7.4-.2.133-.433.267-.7.4-.9.4-1.5 1.3-1.6 2.3l-.1 3.4-11.1-.3.1-3.4c0-1-.6-2-1.4-2.4a11.242 11.242 0 01-1.5-.9c-.8-.6-1.8-.7-2.7-.2l-3 1.6-5.3-9.8 3-1.6c.9-.5 1.4-1.4 1.4-2.4v-1.7c.1-1-.3-2-1.2-2.5l-2.9-1.8 5.9-9.5 2.9 1.8c.9.5 1.9.5 2.8 0 .2-.133.434-.267.7-.4.267-.133.5-.267.7-.4.9-.4 1.6-1.3 1.6-2.3l.1-3.4 11.2.3-.2 3.4c0 1 .6 2 1.4 2.4.534.267 1.034.567 1.5.9.8.6 1.9.7 2.7.2l3-1.6 5.3 9.8-3 1.6c-.9.5-1.4 1.4-1.4 2.5v1.6c-.1 1 .4 2 1.2 2.5l2.9 1.8-5.9 9.5-2.9-1.8zm-2.8-17.6c-2.4-4.5-7.9-6.1-12.4-3.8-4.4 2.4-6.1 8-3.7 12.4 2.4 4.5 7.9 6.2 12.4 3.8 4.4-2.4 6.1-8 3.7-12.4z" fill="#263238"/><path fill-rule="evenodd" clip-rule="evenodd" d="M168.8 64.9c-.6.4-1 1.1-.9 1.8v1.1c-.1.7.3 1.4.9 1.7l2.1 1.2-3.9 6.8-2.1-1.2c-.6-.3-1.4-.3-2 .1l-1 .6c-.6.3-1 .9-1 1.6V81h-7.8v-2.4c0-.7-.4-1.3-1.1-1.6l-1-.6c-.6-.4-1.3-.4-1.9-.1l-2.1 1.2-3.9-6.8 2.1-1.2c.6-.3.9-1 .9-1.7v-1.1c0-.7-.3-1.4-.9-1.8l-2.1-1.2L147 57l2.1 1.2c.6.3 1.3.3 1.9-.1l1-.6c.7-.3 1.1-.9 1.1-1.6v-2.4h7.8v2.4c0 .7.4 1.3 1 1.6l1 .6c.6.4 1.4.4 2 .1L167 57l3.9 6.7-2.1 1.2zM157 60.8c-3.6 0-6.5 2.9-6.5 6.4 0 3.6 2.9 6.4 6.5 6.4 3.5 0 6.4-2.8 6.4-6.4 0-3.5-2.9-6.4-6.4-6.4z" fill="#EBEBEB"/><path d="M43.8 260.8c-13 12.8-15.2 32.6-12.5 50 .1.4.7.3.7-.1 0-4-.1-7.9-.1-11.8.067-.133.133-.3.2-.5 3.4-2.5 6.5-5.3 8.5-9.1 2.2-4.3 3-9.2 4.7-13.6.2-.5-.3-.3-.6-.1-7.9 5.8-10.5 12.2-12.8 20.6.1-4.4.5-8.8 1.4-13.1 1.7-8 5.1-16 10.9-21.9.2-.2-.1-.6-.4-.4z" fill="#263238"/><path d="M41.8 261.8c.1-2.9 2.8-5.6 5-7.4 1.5-1.2 6.1-4.9 8.3-3.6 2.1 1.3-1.9 3.9-3.3 4.8 2.9.1 7 1.6 6.3 4.9-.3 1-1.1 1.4-2.1 1.2-1.8-.3-3.1-1.5-4.7-2.1 2.2 1.6 4.6 4.6 2.9 7.1-.7.9-1.6.9-2.5.3-1.8-1-3.2-4.6-5.4-4.7-1.7.7-4.6 2.7-4.5-.5z" fill="#93C2CD"/><path opacity=".1" d="M41.8 261.8c.1-2.9 2.8-5.6 5-7.4 1.5-1.2 6.1-4.9 8.3-3.6 2.1 1.3-1.9 3.9-3.3 4.8 2.9.1 7 1.6 6.3 4.9-.3 1-1.1 1.4-2.1 1.2-1.8-.3-3.1-1.5-4.7-2.1 2.2 1.6 4.6 4.6 2.9 7.1-.7.9-1.6.9-2.5.3-1.8-1-3.2-4.6-5.4-4.7-1.7.7-4.6 2.7-4.5-.5z" fill="#000"/><path d="M42 263.4c-.7-.6-.7-3.6 3.3-6.6 3.2-2.5 9.5-4.7 9.6-2.1.2 2.1-4 3-6.2 3.6 2.3.3 6.8 1.9 5.8 4.1-.5 1.1-6-.8-8.9.5-.4.2-2.7 1.3-3.6.5z" fill="#93C2CD"/><path d="M13.7 259.9c6 5.7 9.7 13.5 11.7 21.5 1.1 4.3 1.6 8.7 1.9 13-2.6-8.3-5.4-14.5-13.5-20.1-.3-.2-.8-.3-.6.1 1.8 4.5 2.9 9.3 5.2 13.5 2.1 3.7 5.3 6.4 8.8 8.8.067.133.134.3.2.5.2 3.9.2 7.8.4 11.7 0 .4.6.5.7.1 2.1-17.4-.9-37.1-14.4-49.4-.3-.2-.6.1-.4.3z" fill="#263238"/><path d="M11.7 261.2c-2.3.1-3.5 3.8-5.3 4.9-.9.6-1.8.6-2.4-.3-1.9-2.4.4-5.5 2.6-7.2-1.6.7-2.9 1.9-4.6 2.3-1 .2-1.9-.1-2.2-1.2-.8-3.2 3.2-4.9 6.1-5-1.4-.9-5.5-3.4-3.4-4.8 2-1.3 6.8 2.2 8.4 3.4 2.3 1.7 5 4.3 5.2 7.1.3 3.3-2.7 1.4-4.4.8z" fill="#93C2CD"/><path opacity=".1" d="M11.7 261.2c-2.3.1-3.5 3.8-5.3 4.9-.9.6-1.8.6-2.4-.3-1.9-2.4.4-5.5 2.6-7.2-1.6.7-2.9 1.9-4.6 2.3-1 .2-1.9-.1-2.2-1.2-.8-3.2 3.2-4.9 6.1-5-1.4-.9-5.5-3.4-3.4-4.8 2-1.3 6.8 2.2 8.4 3.4 2.3 1.7 5 4.3 5.2 7.1.3 3.3-2.7 1.4-4.4.8z" fill="#000"/><path d="M12.3 261.7c-2.9-1.2-8.3.9-8.8-.2-1.1-2.2 3.3-3.9 5.7-4.2-2.3-.5-6.5-1.3-6.4-3.5 0-2.5 6.4-.6 9.7 1.8 4.1 2.9 4.2 5.8 3.5 6.5-.9.8-3.2-.2-3.7-.4z" fill="#93C2CD"/><path d="M27.2 286.5c-6.8-6.4-10.1-12.5-11.4-24.3 0-.5.2-.6.5-.3 7.1 6.4 9 13.7 10.8 20.1 0-1.7-2.1-20.5 11.1-35.9.2-.2.5.1.3.3-6.6 7.9-9.3 18.6-9.9 28.7-.3 6.1.2 12.3 1.1 18.3.9 6 2.5 11.9 3.4 17.9.1.6-.8.7-1 .2-1.9-6.3-3.2-13-4.2-19.5-.267-1.8-.5-3.633-.7-5.5z" fill="#263238"/><path d="M33.7 249.8c-1.3-3 .1-7.1 1.5-10.1.9-2 3.9-8.2 6.7-8 2.9.3.1 5-.9 6.7 3-1.4 8-1.9 8.9 1.9.3 1.2-.4 2-1.5 2.3-2 .6-4 0-5.9.2 3.1.6 7.1 2.5 6.5 5.9-.2 1.2-1.1 1.7-2.4 1.6-2.3-.2-5.6-3.2-8-2.2-1.4 1.6-3.4 5.2-4.9 1.7z" fill="#93C2CD"/><path opacity=".1" d="M33.7 249.8c-1.3-3 .1-7.1 1.5-10.1.9-2 3.9-8.2 6.7-8 2.9.3.1 5-.9 6.7 3-1.4 8-1.9 8.9 1.9.3 1.2-.4 2-1.5 2.3-2 .6-4 0-5.9.2 3.1.6 7.1 2.5 6.5 5.9-.2 1.2-1.1 1.7-2.4 1.6-2.3-.2-5.6-3.2-8-2.2-1.4 1.6-3.4 5.2-4.9 1.7z" fill="#000"/><path d="M34.7 251.4c-1-.3-2.5-3.3.1-8.5 2.1-4.2 7.5-9.6 9-7 1.2 2.1-2.7 5.2-4.7 6.9 2.6-.9 8-1.5 8.1 1.2.1 1.4-6.6 2.2-8.9 5-.4.5-2.2 2.8-3.6 2.4zm6.8 44.1c4.4 27.067 6.833 41.9 7.3 44.5H13.4l5.9-44.4 22.2-.1z" fill="#93C2CD"/><path d="M-1.6 340.1l51.6-.2 51.7-.1 103.3-.2 103.3.2 51.7.1 51.6.2-51.6.3-51.7.1-103.3.1-103.3-.1-51.7-.1-51.6-.3z" fill="#263238"/><path d="M205 427.1c82.346 0 149.1-9.447 149.1-21.1 0-11.653-66.754-21.1-149.1-21.1-82.346 0-149.1 9.447-149.1 21.1 0 11.653 66.754 21.1 149.1 21.1z" fill="#EBEBEB"/><path fill-rule="evenodd" clip-rule="evenodd" d="M112.6 184.7l-6.2-24.5-49.1 12.5-6.5-25.5L90 57.9l19.5-4.9 18.9 74.3 15.7-4 6.5 25.7-15.7 4 6.2 24.4-28.5 7.3zM79 139.9l24.3-6.1-8.1-31.6L79 139.9zm174-36.8c0 8.133-1.233 15.6-3.7 22.4-2.4 6.8-5.767 12.667-10.1 17.6-4.267 5-9.333 8.867-15.2 11.6-5.8 2.8-12.133 4.2-19 4.2-6.867 0-13.233-1.4-19.1-4.2-5.933-2.733-11.033-6.6-15.3-11.6-4.267-4.933-7.6-10.8-10-17.6-2.4-6.8-3.6-14.267-3.6-22.4 0-8.067 1.2-15.5 3.6-22.3 2.4-6.8 5.733-12.7 10-17.7 4.267-4.933 9.367-8.833 15.3-11.7 5.867-2.8 12.233-4.2 19.1-4.2 6.867 0 13.2 1.4 19 4.2a47.416 47.416 0 0115.2 11.7c4.333 5 7.7 10.9 10.1 17.7 2.467 6.8 3.7 14.233 3.7 22.3zm-29.6 0c0-8.6-1.733-15.567-5.2-20.9-3.4-5.333-7.8-8-13.2-8-5.667 0-10.167 2.667-13.5 8-3.4 5.333-5.1 12.3-5.1 20.9 0 8.6 1.7 15.533 5.1 20.8 3.333 5.267 7.833 7.9 13.5 7.9 5.4 0 9.8-2.633 13.2-7.9 3.467-5.267 5.2-12.2 5.2-20.8zm82.4 76.9l4.1-24.9-50-8.1 4.2-26 71.5-66.3 19.8 3.2-12.2 75.7 16 2.6-4.3 26.2-16-2.6-4 24.9-29.1-4.7zm-13-54.5l24.7 4 5.2-32.2-29.9 28.2zm-129.1-96c-2.134 0-4.034-.433-5.7-1.3-1.734-.8-3.2-1.867-4.4-3.2a14.938 14.938 0 01-2.9-4.7c-.667-1.733-1-3.533-1-5.4 0-1.867.366-3.7 1.1-5.5a13.792 13.792 0 012.9-4.6 14.53 14.53 0 014.5-3.2c1.733-.8 3.6-1.2 5.6-1.2 2.066 0 3.966.4 5.7 1.2a15.6 15.6 0 014.4 3.4c1.2 1.333 2.133 2.9 2.8 4.7.666 1.733 1 3.5 1 5.3 0 1.933-.367 3.767-1.1 5.5a13.824 13.824 0 01-2.9 4.6c-1.2 1.333-2.667 2.4-4.4 3.2-1.734.8-3.6 1.2-5.6 1.2zm-8.3-14.6c0 1.267.166 2.467.5 3.6.4 1.2.966 2.233 1.7 3.1.666.867 1.533 1.567 2.6 2.1 1 .533 2.166.8 3.5.8 1.333 0 2.533-.267 3.6-.8a8.192 8.192 0 002.6-2.2 9.173 9.173 0 001.6-3.1c.4-1.133.6-2.3.6-3.5 0-1.2-.2-2.4-.6-3.6a9.487 9.487 0 00-1.7-3 6.972 6.972 0 00-2.6-2.2c-1-.533-2.167-.8-3.5-.8-1.334 0-2.534.3-3.6.9a6.956 6.956 0 00-2.6 2.2 8.129 8.129 0 00-1.6 3c-.334 1.133-.5 2.3-.5 3.5zm35.8 14.8c-1.734 0-3.267-.3-4.6-.9-1.4-.6-2.567-1.4-3.5-2.4a11.12 11.12 0 01-2.2-3.5 11.191 11.191 0 01-.8-4.2c0-1.467.266-2.867.8-4.2a11.117 11.117 0 012.2-3.5c.933-1 2.1-1.8 3.5-2.4 1.333-.6 2.866-.9 4.6-.9 1.733 0 3.3.3 4.7.9 1.333.6 2.466 1.4 3.4 2.4 1 1 1.733 2.167 2.2 3.5.533 1.333.8 2.733.8 4.2a11.21 11.21 0 01-.8 4.2 9.18 9.18 0 01-2.2 3.5c-.934 1-2.067 1.8-3.4 2.4-1.4.6-2.967.9-4.7.9zm-5.5-11c0 .933.133 1.8.4 2.6.266.733.666 1.4 1.2 2a5.485 5.485 0 001.7 1.3c.733.333 1.466.5 2.2.5.8 0 1.533-.167 2.2-.5a6.909 6.909 0 001.8-1.3c.466-.6.833-1.267 1.1-2 .333-.8.5-1.667.5-2.6s-.167-1.8-.5-2.6a7.323 7.323 0 00-1.1-2 6.909 6.909 0 00-1.8-1.3c-.667-.333-1.4-.5-2.2-.5-.734 0-1.467.167-2.2.5-.667.333-1.234.8-1.7 1.4-.534.533-.934 1.2-1.2 2-.267.733-.4 1.567-.4 2.5zm32.9 11c-1.667 0-3.1-.367-4.3-1.1a8.89 8.89 0 01-3-3.1v12.4h-5.4V8.1h4.8v3.6c.733-1.2 1.733-2.167 3-2.9 1.2-.733 2.633-1.1 4.3-1.1 1.4 0 2.7.3 3.9.9 1.2.6 2.267 1.367 3.2 2.3.867 1 1.533 2.167 2 3.5.533 1.333.8 2.733.8 4.2 0 1.533-.233 3-.7 4.4-.467 1.333-1.1 2.5-1.9 3.5-.867 1-1.867 1.767-3 2.3-1.133.6-2.367.9-3.7.9zm-1.8-4.6c.8 0 1.533-.2 2.2-.6a4.706 4.706 0 001.8-1.4 7.3 7.3 0 001.1-2c.267-.8.4-1.633.4-2.5s-.133-1.667-.4-2.4c-.333-.8-.733-1.467-1.2-2a5.632 5.632 0 00-1.9-1.4 5.5 5.5 0 00-2.3-.5c-.533 0-1.067.1-1.6.3-.533.2-1.033.433-1.5.7a5.113 5.113 0 00-1.2 1.2c-.4.4-.7.867-.9 1.4v5c.533 1.2 1.3 2.2 2.3 3 1 .8 2.067 1.2 3.2 1.2z" fill="#263238"/><path d="M239.5 29.7c-1.734 0-3.467-.3-5.201-.9-1.666-.533-3.099-1.333-4.299-2.4l2-3.4c1.266.933 2.533 1.633 3.799 2.1 1.2.467 2.401.7 3.601.7 1.066 0 1.933-.2 2.6-.6.6-.4.9-1 .9-1.8 0-.733-.367-1.267-1.101-1.6-.733-.333-1.933-.733-3.599-1.2-1.334-.4-2.5-.767-3.5-1.1-.934-.333-1.7-.733-2.3-1.2-.6-.467-1.034-.967-1.3-1.5-.267-.6-.4-1.3-.4-2.1 0-1.067.199-2.033.599-2.9a5.72 5.72 0 011.801-2.2c.733-.6 1.6-1.067 2.6-1.4 1-.333 2.1-.5 3.3-.5 1.6 0 3.1.233 4.5.7 1.4.467 2.666 1.2 3.799 2.2l-2.199 3.3c-1.067-.8-2.1-1.4-3.1-1.8-1-.4-2-.6-3-.6-.934 0-1.7.2-2.3.6-.667.4-1 1-1 1.8 0 .4.1.7.3.9.133.267.366.5.7.7.333.2.733.367 1.2.5.533.2 1.2.4 2 .6 1.466.333 2.7.7 3.7 1.1 1.066.4 1.933.833 2.6 1.3.666.467 1.133 1.033 1.4 1.7.333.6.5 1.367.5 2.3 0 2.067-.767 3.7-2.301 4.9-1.533 1.2-3.633 1.8-6.299 1.8zm13.2-11.2V.3h5.4v18.2h-5.4zm0 10.8v-6.1h5.4v6.1h-5.4z" fill="#263238"/><path d="M225.6 273.8h-35.5v-3h35.5v3zm0 3.7h-35.5v-2.9h35.5v2.9zm0 3.8h-35.5v-2.9h35.5v2.9zm0 3.8h-35.5v-2.9h35.5v2.9zm0 3.8h-35.5V286h35.5v2.9zm15.4 75.6h-67.5v-2.9H241v2.9zm0 3.8h-67.5v-2.9H241v2.9zm0 3.8h-67.5v-2.9H241v2.9zm0 3.8h-67.5V373H241v2.9zm0 3.8h-67.5v-2.9H241v2.9z" fill="#37474F"/><path d="M143.8 246.8c.066-.267-4.834-2.067-14.7-5.4l.8-50.8 19.7-4.3-5.8 60.5z" fill="#93C2CD"/><path opacity=".2" d="M143.8 246.8c.066-.267-4.834-2.067-14.7-5.4l.8-50.8 19.7-4.3-5.8 60.5z" fill="#000"/><path d="M294.9 208l17 10.8-16.7 48c-10.4-.267-15.634-.267-15.7 0l15.4-58.8z" fill="#93C2CD"/><path opacity=".2" d="M294.9 208l17 10.8-16.7 48c-10.4-.267-15.634-.267-15.7 0l15.4-58.8z" fill="#000"/><path d="M141 265.5c3.666-54.867 7.1-91.3 10.3-109.3 66.266 5 117.3 14.333 153.1 28-18.467 64.067-28.167 97.7-29.101 100.9-46.666-9.2-91.433-15.733-134.299-19.6z" fill="#93C2CD"/><path opacity=".1" d="M229.699 167.2a5455.53 5455.53 0 01-4.9 29.7l-5.1 29.6-.3-.4 33.3 7.9 16.6 4.1 16.6 4.1-16.7-3.8-16.7-3.8-33.3-7.8h-.3v-.4l5.3-29.6c1.8-9.867 3.634-19.733 5.5-29.6z" fill="#000"/><path opacity=".1" fill-rule="evenodd" clip-rule="evenodd" d="M226.1 172.8c0 .9-.7 1.8-1.8 1.9-.5.1-1-.1-1.4-.4-.5-.4-.7-.9-.7-1.5s.2-1.1.7-1.5c.4-.3.9-.5 1.4-.4 1.1.1 1.8 1 1.8 1.9zm0 0c0-.5-.2-.9-.6-1.2-.3-.3-.8-.4-1.2-.4-.8.1-1.4.9-1.3 1.6-.1.7.5 1.5 1.3 1.6.4 0 .9-.1 1.2-.4.4-.3.6-.7.6-1.2zm-1.801 12.2c0 1-.699 1.9-1.699 2-.5 0-1.1-.1-1.5-.5-.4-.3-.6-.9-.6-1.5 0-.5.2-1.1.6-1.4.4-.4 1-.5 1.5-.5 1 .1 1.699 1 1.699 1.9zm0 0c0-.4-.2-.9-.5-1.1-.4-.3-.799-.5-1.199-.4-.9.1-1.4.8-1.4 1.5 0 .8.5 1.5 1.4 1.6.4.1.799-.1 1.199-.4.3-.2.5-.7.5-1.2zm-2.1 13c0 .9-.7 1.8-1.8 1.9-.5.1-1-.1-1.4-.5-.4-.3-.7-.9-.7-1.4 0-.6.3-1.1.7-1.5.4-.3.9-.5 1.4-.4 1.1 0 1.8 1 1.8 1.9zm0 0c0-.5-.2-.9-.6-1.2-.3-.3-.8-.4-1.2-.4-.8.1-1.4.9-1.3 1.6-.1.7.5 1.5 1.3 1.5.4.1.9 0 1.2-.3.4-.3.6-.8.6-1.2zM220 210.9c0 .9-.7 1.9-1.7 2-.5 0-1.1-.2-1.5-.5-.4-.4-.6-.9-.6-1.5 0-.5.2-1.1.6-1.4.4-.4 1-.6 1.5-.5 1 .1 1.7 1 1.7 1.9zm0 0c0-.4-.2-.9-.5-1.2-.4-.3-.8-.4-1.2-.3-.9.1-1.4.8-1.4 1.5s.5 1.5 1.4 1.6c.4 0 .8-.1 1.2-.4.3-.3.5-.7.5-1.2zm7.299 20.7c.1.9-.699 1.8-1.699 1.9-.5 0-1.1-.1-1.5-.5-.4-.3-.6-.9-.6-1.4 0-.6.2-1.1.6-1.5.4-.4 1-.5 1.5-.5 1 .1 1.799 1.1 1.699 2zm0 0c0-.5-.2-.9-.5-1.2-.3-.3-.799-.4-1.199-.4-.8.1-1.4.9-1.4 1.6 0 .7.6 1.4 1.4 1.5.4.1.899-.1 1.199-.3.3-.3.5-.8.5-1.2zm12.301 2.9c0 .9-.7 1.9-1.8 2-.5 0-1-.1-1.4-.5-.5-.4-.7-.9-.7-1.5 0-.5.2-1.1.7-1.4.4-.4.9-.5 1.4-.5 1.1.1 1.8 1 1.8 1.9zm0 0c0-.4-.2-.9-.6-1.2-.3-.2-.8-.4-1.2-.3-.8.1-1.4.8-1.4 1.5s.6 1.5 1.4 1.6c.4 0 .9-.1 1.2-.4.4-.3.6-.7.6-1.2zm12.199 3c0 .9-.7 1.9-1.8 2-.5 0-1-.2-1.4-.5-.4-.4-.7-.9-.7-1.5 0-.5.3-1.1.7-1.4.4-.4.9-.6 1.4-.5 1.1.1 1.8 1 1.8 1.9zm0 0c0-.4-.2-.9-.6-1.2-.3-.3-.8-.4-1.2-.3-.8.1-1.4.8-1.3 1.5-.1.7.5 1.5 1.3 1.6.4 0 .9-.1 1.2-.4.4-.3.6-.7.6-1.2zm12.201 3c0 .9-.7 1.8-1.8 1.9-.5.1-1-.1-1.4-.4-.4-.4-.7-.9-.7-1.5s.3-1.1.7-1.5c.4-.3.9-.5 1.4-.4 1.1.1 1.8 1 1.8 1.9zm0 0c0-.5-.2-.9-.6-1.2-.3-.3-.8-.4-1.2-.4-.8.1-1.3.9-1.3 1.6 0 .7.5 1.5 1.3 1.6.4 0 .9-.1 1.2-.4.4-.3.6-.7.6-1.2zm12.199 3.1c-.1.9-.9 1.8-1.9 1.8-.5 0-1-.2-1.4-.6-.4-.4-.6-.9-.6-1.5.1-.5.4-1.1.8-1.4.4-.3 1-.4 1.5-.4 1 .2 1.7 1.2 1.6 2.1zm0 0c0-.4-.1-.9-.5-1.2-.3-.3-.7-.5-1.1-.5-.9.1-1.5.8-1.5 1.5-.1.7.4 1.5 1.2 1.6.4.1.9 0 1.3-.2.3-.3.6-.7.6-1.2zM217.9 223.9c0 .9-.7 1.8-1.8 1.9-.5 0-1-.1-1.4-.5-.4-.3-.7-.9-.7-1.4 0-.6.3-1.1.7-1.5.4-.4.9-.5 1.4-.5 1.1.1 1.8 1.1 1.8 2zm0 0c0-.5-.201-.9-.601-1.2-.3-.3-.799-.4-1.199-.4-.8.1-1.401.9-1.301 1.6-.1.7.501 1.4 1.301 1.5.4.1.899 0 1.199-.3.4-.3.601-.8.601-1.2z" fill="#000"/><path opacity=".2" d="M206.299 228.8c-2.5 15.4-17 25.9-32.4 23.4-15.4-2.5-25.8-17-23.3-32.4 2.5-15.4 17-25.9 32.3-23.4 15.4 2.5 25.9 17 23.4 32.4z" fill="#000"/><path d="M200.799 227.9c-2 12.4-13.6 20.8-26 18.8-12.3-2-20.7-13.7-18.7-26 2-12.4 13.6-20.7 26-18.7 12.3 2 20.7 13.6 18.7 25.9z" fill="#263238"/><path d="M176.199 221.3l-5.3-.9.9-5.3 5.3.9-.9 5.3zm-4.399-6.2l-5.3-.8.8-5.3 5.3.8-.8 5.3zm21.1 3.5l-5.3-.9.9-5.3 5.3.9-.9 5.3zm-24.5 17.6l-5.3-.9.8-5.3 5.3.9-.8 5.3zm21.1 3.4l-5.3-.8.9-5.3 5.3.8-.9 5.3z" fill="#93C2CD"/><path d="M174.5 231.8l-5.3-.9.9-5.3 5.3.9-.9 5.3z" fill="#93C2CD"/><path d="M180.699 227.4l-5.3-.9.8-5.3 5.3.9-.8 5.3zm6.101-4.4l-5.3-.8.9-5.3 5.2.8-.8 5.3z" fill="#93C2CD"/><path d="M185.1 233.5l-5.3-.9.9-5.3 5.3.9-.9 5.3zm96.6 9.2c-3.6 15.1-18.9 24.5-34 20.9-15.2-3.6-24.6-18.8-21-34 3.6-15.2 18.8-24.5 34-20.9 15.2 3.6 24.6 18.8 21 34z" fill="#93C2CD"/><path opacity=".2" d="M281.7 242.7c-3.6 15.1-18.9 24.5-34 20.9-15.2-3.6-24.6-18.8-21-34 3.6-15.2 18.8-24.5 34-20.9 15.2 3.6 24.6 18.8 21 34z" fill="#000"/><path opacity=".2" d="M281.7 242.7a14.88 14.88 0 01-.5 1.6l-55-11.7c.133-1 .3-2 .5-3 3.6-15.2 18.8-24.5 34-20.9 15.2 3.6 24.6 18.8 21 34z" fill="#000"/><path d="M276.2 241.4c-2.9 12.1-15.1 19.7-27.2 16.8-12.2-2.9-19.7-15.1-16.8-27.3 2.9-12.2 15.1-19.7 27.2-16.8 12.2 2.9 19.7 15.1 16.8 27.3z" fill="#263238"/><path d="M253.7 249.7l-5.2-1.2 6.2-26 5.2 1.3-6.2 25.9z" fill="#93C2CD"/><path d="M283.299 242.1L225.5 228.4c3.8-16 19.799-25.8 35.799-22 15.9 3.8 25.8 19.8 22 35.7z" fill="#93C2CD"/><path opacity=".2" d="M283.299 242.1L225.5 228.4c3.8-16 19.799-25.8 35.799-22 15.9 3.8 25.8 19.8 22 35.7z" fill="#000"/><path opacity=".1" d="M205.1 252.9c.1-2.2.9-4.5 2.6-6.3.8-.9 1.9-1.7 3.1-2.1 1.1-.4 2.4-.5 3.7-.4 1.2.1 2.5.6 3.5 1.4 1 .8 1.8 1.8 2.3 2.9.9 2.3 1 4.7.5 6.9-.3-2.2-.9-4.4-1.9-6.2-1.1-1.7-2.7-2.9-4.7-3-1.9-.3-3.9.3-5.4 1.6-1.6 1.3-2.8 3.2-3.7 5.2z" fill="#000"/><path d="M148.7 195.3l.9-9c.266-3 .6-6 1-9 .333-3 .7-6 1.1-9l1.2-9 .1-.8.8.1c6.533.4 13.033.933 19.5 1.6 3.266.333 6.533.7 9.8 1.1 3.2.5 6.4.9 9.6 1.5l-19.5-1.2-19.5-1.3 1-.7c-.5 3-.9 6-1.4 8.9l-1.4 9c-.467 3-.967 5.967-1.5 8.9-.6 3-1.1 6-1.7 8.9zm4.7 22.9c.7-3.7 2.3-7.1 4.5-10.1.6-.8 1.2-1.5 1.8-2.2l2-2 2.2-1.8 2.4-1.5 2.6-1.2 2.7-.9 2.7-.6c1-.1 1.9-.2 2.9-.2 3.7-.1 7.4.7 10.8 2.1-3.6-.7-7.2-1.1-10.8-.8-3.5.4-6.9 1.4-10 3.2-3.1 1.7-5.9 4-8.2 6.7-2.3 2.7-4.2 5.8-5.6 9.3zm77.9 7.6c1.1-3.5 3.2-6.7 5.9-9.4.6-.7 1.3-1.3 2-1.9.733-.6 1.5-1.167 2.3-1.7l2.4-1.4c.9-.4 1.7-.8 2.6-1.2.866-.267 1.766-.533 2.7-.8l2.8-.6 2.8-.2c1 0 1.9.1 2.8.2 3.8.4 7.3 1.7 10.5 3.5-3.5-1.1-7-2-10.6-2.2-3.5-.1-7.1.5-10.4 1.7-3.3 1.3-6.3 3.2-9 5.6-2.7 2.4-5 5.2-6.8 8.4z" fill="#fff"/><path d="M144.1 316.3c-7.2 0-23-1.7-33.2-14.8-13-16.7-8.3-48.9-8.1-50.2l5.6.8c0 .3-4.5 31.1 7 45.9 11.3 14.5 31.7 12.4 31.9 12.4l.6 5.7c-.2 0-1.6.2-3.8.2z" fill="#93C2CD"/><path opacity=".4" d="M144.1 316.3c-7.2 0-23-1.7-33.2-14.8-13-16.7-8.3-48.9-8.1-50.2l5.6.8c0 .3-4.5 31.1 7 45.9 11.3 14.5 31.7 12.4 31.9 12.4l.6 5.7c-.2 0-1.6.2-3.8.2z" fill="#fff"/><path d="M110.1 256c-1.067 0-2.133-.1-3.2-.3-9.5-1.5-13.7-7.2-15.6-11.7-1.9-4.6-2.3-10-1.3-16.3l12.1 1.9c-.6 3.9-.4 7.4.5 9.7.7 1.7 2.1 3.7 6.3 4.3 1.9.4 4 .2 6.2-3.1 1.7-2.6 2.7-6.1 3.1-8.3l12.1 2c-.3 1.7-1.5 7.8-5 13.1-3.7 5.7-9.1 8.7-15.2 8.7zm46 76.6c0-.133-3.433-.767-10.3-1.9l-4.9-33.4 12.4-4.9 2.8 40.2z" fill="#93C2CD"/><path opacity=".2" d="M156.1 332.6c0-.133-3.433-.767-10.3-1.9l-4.9-33.4 12.4-4.9 2.8 40.2z" fill="#000"/><path d="M261 292.6l12.3 5.1-5.7 33.3c-6.867.933-10.3 1.5-10.3 1.7l3.7-40.1z" fill="#93C2CD"/><path opacity=".2" d="M261 292.6l12.3 5.1-5.7 33.3c-6.867.933-10.3 1.5-10.3 1.7l3.7-40.1z" fill="#000"/><path d="M151.8 285c55.2-2.4 92.134-2.033 110.8 1.1-5.466 53.4-8.366 80.6-8.7 81.6-54.866-.133-86.6-.133-95.2 0-4.666-35.467-6.966-63.033-6.9-82.7z" fill="#93C2CD"/><path opacity=".2" d="M177 306.9c30.133-1.2 50.267-1 60.4.6-2.933 26.933-4.5 40.633-4.7 41.1-29.933-.067-47.267-.067-52 0-2.067-18.4-3.3-32.3-3.7-41.7z" fill="#000"/><path opacity=".2" d="M183.2 348.6c-1.067 0-1.9.033-2.5.1-2-18.467-3.233-32.4-3.7-41.8.667 0 1.6-.033 2.8-.1l3.4 41.8z" fill="#000"/><path fill-rule="evenodd" clip-rule="evenodd" d="M204.7 324.5c-1.7 5.3-7.4 8.3-12.7 6.6-5.3-1.7-8.3-7.4-6.6-12.7 1.7-5.3 7.4-8.3 12.7-6.6 5.3 1.7 8.3 7.4 6.6 12.7zm-8-8.3c-2.9-1-6 .7-6.9 3.6-1 2.9.7 6 3.6 7 2.9.9 6-.8 6.9-3.7 1-2.9-.7-6-3.6-6.9z" fill="#93C2CD"/><path d="M193 333.9l-3.4-1.1.7-2.7 3.7 1.2-1 2.6zm-8.2-5l-1.6-3.1 2.3-1.4 1.8 3.4-2.5 1.1zm-2.3-9.3l1-3.3 2.7.6-1.2 3.7-2.5-1zm4.9-8.2l3.1-1.6 1.5 2.4-3.5 1.8-1.1-2.6zm9.3-2.3l3.4 1.1-.7 2.7-3.7-1.2 1-2.6zm8.2 5l1.6 3.1-2.3 1.4-1.8-3.4 2.5-1.1zm2.3 9.3l-1 3.3-2.7-.6 1.2-3.7 2.5 1zm-4.9 8.2l-3.1 1.6-1.5-2.4 3.5-1.8 1.1 2.6z" fill="#93C2CD"/><path fill-rule="evenodd" clip-rule="evenodd" d="M216.8 337.4c-2.1 3.2-6.3 4.1-9.5 2-3.1-2-4-6.2-1.9-9.4 2-3.2 6.2-4 9.4-2 3.1 2.1 4 6.3 2 9.4zm-3.7-6.8c-1.7-1.1-4-.6-5.2 1.1-1.1 1.7-.6 4 1.1 5.2 1.8 1.1 4.1.6 5.2-1.1 1.1-1.8.6-4.1-1.1-5.2z" fill="#DBDBDB"/><path d="M207.5 341.4l-2-1.3.9-1.6 2.2 1.4-1.1 1.5zm-4.4-4.7l-.5-2.3 1.8-.5.5 2.6-1.8.2zm.2-6.4l1.2-2 1.7.9-1.5 2.2-1.4-1.1zm4.7-4.5l2.2-.4.6 1.7-2.6.6-.2-1.9zm6.4.2l2 1.3-.9 1.6-2.2-1.4 1.1-1.5zm4.4 4.7l.5 2.3-1.8.5-.5-2.5 1.8-.3zm-.2 6.5l-1.3 1.9-1.6-.9 1.4-2.2 1.5 1.2zm-4.7 4.4l-2.3.5-.5-1.8 2.6-.5.2 1.8z" fill="#DBDBDB"/><path d="M269.3 296.7l3.6.7-9.1 61.6-3.2-.6 8.7-61.7z" fill="#93C2CD"/><path d="M232.7 348.6l4.7-41.1 31.9-10.8c-5.8 41.6-8.7 62.167-8.7 61.7l-27.9-9.8z" fill="#93C2CD"/><path opacity=".4" d="M232.7 348.6l4.7-41.1 31.9-10.8c-5.8 41.6-8.7 62.167-8.7 61.7l-27.9-9.8z" fill="#fff"/><path d="M155.6 309.1c-.5-3.4-.8-6.8-1-10.3-.067-1.667-.133-3.367-.2-5.1V288h.5c6.3-.3 12.6-.7 18.9-1 6.333-.333 12.667-.6 19-.8-6.267.533-12.567 1.033-18.9 1.5-6.3.5-12.6.9-18.9 1.3l.4-.5v10.3c.067 1.733.1 3.467.1 5.2l.1 5.1zm86.3-1a81.33 81.33 0 016-2.6c2-.867 4.033-1.633 6.1-2.3 2.1-.8 4.1-1.4 6.2-2 2.1-.6 4.3-1.2 6.4-1.5l.6-.1-.1.5c-.5 2.7-1.1 5.3-1.7 8l.9-8.1.5.4c-2.133.533-4.233 1.1-6.3 1.7-2.067.6-4.133 1.267-6.2 2l-12.4 4z" fill="#fff"/><path opacity=".1" d="M169.4 285.1l.5 10.3.5 10.3.8 20.6.6 20.6.3 10.4.1 10.3-.5-10.3-.5-10.3-.8-20.6-.6-20.7-.2-10.3-.2-10.3z" fill="#000"/><path opacity=".1" fill-rule="evenodd" clip-rule="evenodd" d="M166.5 291.3c.2.9-.4 2-1.4 2.3-.5.1-1 .1-1.5-.2-.5-.3-.8-.8-.9-1.3-.1-.5 0-1.1.3-1.6.3-.4.9-.7 1.4-.7 1-.1 1.9.6 2.1 1.5zm0 0c-.1-.4-.4-.8-.8-1-.4-.3-.9-.3-1.3-.2-.8.3-1.2 1.2-1 1.8.1.7.8 1.4 1.7 1.3.4 0 .8-.2 1.1-.6.2-.3.3-.8.3-1.3zm.7 12.4c.2.9-.4 1.9-1.4 2.2-.5.2-1 .1-1.5-.2-.5-.2-.8-.7-.9-1.3-.1-.5 0-1.1.3-1.5.4-.5.9-.7 1.4-.8 1-.1 1.9.7 2.1 1.6zm0 0c-.1-.5-.4-.9-.8-1.1-.4-.2-.9-.2-1.3-.1-.8.3-1.1 1.1-1 1.8.1.7.8 1.3 1.7 1.3.4-.1.8-.3 1.1-.6.2-.4.3-.9.3-1.3zm.4 13.1c.2.9-.3 1.9-1.3 2.2-.5.2-1.1.1-1.5-.1-.5-.3-.9-.8-1-1.3-.1-.6 0-1.2.4-1.6.3-.4.8-.7 1.3-.8 1.1-.1 2 .7 2.1 1.6zm0 0c-.1-.5-.4-.9-.8-1.1-.4-.2-.8-.2-1.2-.1-.8.3-1.2 1.1-1 1.8.1.7.8 1.3 1.6 1.3.4-.1.8-.3 1.1-.6.3-.4.4-.9.3-1.3zm.5 13.1c.2.9-.4 1.9-1.4 2.2-.5.2-1 .1-1.5-.1-.5-.3-.8-.8-.9-1.3-.1-.6 0-1.2.3-1.6.4-.4.9-.7 1.4-.8 1-.1 1.9.7 2.1 1.6zm0 0c-.1-.5-.4-.9-.8-1.1-.4-.2-.9-.2-1.3-.1-.8.3-1.1 1.1-1 1.8.1.7.8 1.3 1.7 1.3.4-.1.8-.3 1.1-.6.2-.4.3-.9.3-1.3zm.4 13.1c.2.9-.3 1.9-1.3 2.2-.5.2-1.1.1-1.5-.1-.5-.3-.9-.8-1-1.3-.1-.6 0-1.2.4-1.6.3-.4.8-.7 1.3-.7 1.1-.2 2 .6 2.1 1.5zm0 0c-.1-.4-.4-.8-.8-1.1-.4-.2-.8-.2-1.2-.1-.8.3-1.2 1.1-1 1.8.1.7.8 1.4 1.6 1.3.4-.1.8-.3 1.1-.6.3-.4.4-.8.3-1.3zm.5 13.1c.2.9-.4 2-1.4 2.3-.5.1-1 0-1.5-.2-.5-.3-.8-.8-.9-1.3-.1-.6 0-1.2.3-1.6.4-.4.9-.7 1.4-.7 1-.2 1.9.6 2.1 1.5zm0 0c-.1-.4-.4-.8-.8-1.1-.4-.2-.9-.2-1.3-.1-.8.3-1.1 1.1-1 1.8.1.7.8 1.4 1.7 1.3.4 0 .8-.3 1.1-.6.2-.4.3-.8.3-1.3z" fill="#000"/><path d="M127.8 395.8l-1.6-5.4 46.8-14.2 1.7 5.4-46.9 14.2z" fill="#93C2CD"/><path opacity=".4" d="M127.8 395.8l-1.6-5.4 46.8-14.2 1.7 5.4-46.9 14.2z" fill="#fff"/><path d="M147.7 390.9l-2.6-8.1 5.5-1.7 2.5 8.1-5.4 1.7zm-50.9 20.3l-18-51.1 36.5-8.6 12.1 52.4-30.6 7.3zm38.7-10l-8.1 2.7-12.1-52.4 11.7 2.8 8.5 46.9z" fill="#93C2CD"/><path opacity=".2" d="M135.5 401.2l-8.1 2.7-12.1-52.4 11.7 2.8 8.5 46.9z" fill="#000"/><path d="M173.9 385.1a6.2 6.2 0 100-12.4 6.2 6.2 0 000 12.4zM283 395.8l-46.9-14.3 1.7-5.5 46.9 14.3-1.7 5.5z" fill="#93C2CD"/><path opacity=".4" d="M283 395.8l-46.9-14.3 1.7-5.5 46.9 14.3-1.7 5.5z" fill="#fff"/><path d="M263.1 390.8l-5.4-1.7 2.6-8.1 5.4 1.7-2.6 8.1zm20.3 13l12.2-52.3 36.5 8.7-18.1 51-30.6-7.4zm.5-49.6l11.7-2.7-12.2 52.3-8.1-2.7 8.6-46.9z" fill="#93C2CD"/><path opacity=".2" d="M283.9 354.2l11.7-2.7-12.2 52.3-8.1-2.7 8.6-46.9z" fill="#000"/><path d="M237 385a6.2 6.2 0 100-12.4 6.2 6.2 0 000 12.4zm36.7-75c.7-.7 17.5-16.3 38.4-10.7 20.5 5.5 36.1 34 36.7 35.2l-5 2.7c-.2-.2-15.1-27.5-33.2-32.4-17.7-4.8-32.8 9.2-32.9 9.3l-4-4.1z" fill="#93C2CD"/><path opacity=".4" d="M273.7 310c.7-.7 17.5-16.3 38.4-10.7 20.5 5.5 36.1 34 36.7 35.2l-5 2.7c-.2-.2-15.1-27.5-33.2-32.4-17.7-4.8-32.8 9.2-32.9 9.3l-4-4.1z" fill="#fff"/><path d="M333.2 351.3c-.5-8 2.9-14.3 9.6-17.9 8.5-4.5 15.4-2.4 19.6 0 4.2 2.5 7.8 6.6 10.8 12.3l-10.8 5.7c-1.9-3.5-4.1-6.1-6.3-7.4-1.5-.9-3.8-1.7-7.6.3-1.7.9-3.3 2.3-3 6.3.1 3 1.4 6.4 2.5 8.4l-10.9 5.7c-.8-1.5-3.5-7.1-3.9-13.4z" fill="#93C2CD"/><path d="M279.9 295c2.4-1.6 4.8-3.1 7.2-4.6 2.4-1.6 4.9-3 7.3-4.5 2.5-1.4 5-2.9 7.5-4.2l3.7-2.1c1.3-.6 2.5-1.3 3.8-1.9-1.2.8-2.4 1.5-3.5 2.3l-3.7 2.3c-2.4 1.6-4.8 3-7.3 4.5-2.4 1.4-4.9 2.8-7.4 4.2-2.5 1.4-5 2.8-7.6 4zm-6.2 23.4c3.4 1.9 6.6 4.1 9.7 6.3 3.2 2.3 6.2 4.6 9.1 7.2-3.3-2-6.5-4.1-9.7-6.4-3.1-2.2-6.2-4.5-9.1-7.1zm5.5-2.9c2.6.8 5.2 1.7 7.8 2.6 2.5.9 5 1.9 7.6 2.9l7.5 3 3.7 1.6c1.3.6 2.5 1.1 3.7 1.7-1.3-.4-2.6-.8-3.8-1.2l-3.9-1.4c-2.5-.9-5.1-1.8-7.6-2.8-2.5-1-5-2-7.5-3.1-2.5-1-5-2.1-7.5-3.3zm7.4-18.3c2.5-.6 5-1.2 7.5-1.7s5.1-1 7.6-1.4c2.5-.5 5.1-.9 7.6-1.3l3.8-.5c1.3-.1 2.6-.3 3.8-.4-1.2.3-2.5.6-3.7.9l-3.8.8c-2.5.5-5 1-7.5 1.4-2.6.5-5.1.9-7.6 1.3-2.6.3-5.1.7-7.7.9zm-60 15.6c.4-2 1.1-4 2-5.9.9-1.9 2-3.7 3.3-5.3 1.4-1.6 3-2.9 5-3.7 2-.8 4.3-.8 6.3 0 2.1.8 3.7 2.5 4.5 4.5.466 1 .766 2.033.9 3.1.1 1.1.1 2.2-.4 3.3-.2.5-.5 1-1.1 1.4-.2.2-.6.3-.9.3-.3.1-.6.1-1-.1-.7-.2-1-.8-1.3-1.3a5.87 5.87 0 01-.6-1.5c-.5-2.1-.6-4.2-.5-6.3.3-4.2 1.4-8.4 3.7-12 1.1-1.8 2.5-3.4 4.3-4.6 1.8-1.2 3.8-2 5.9-2.3 1-.2 2.1-.2 3.1-.2.6-.1 1.1 0 1.6.1.5 0 1.1 0 1.6.2 2 .3 4 1.2 5.8 2.2 1.8 1 3.5 2.4 4.9 3.8 1.5 1.5 2.8 3.1 3.9 4.9-2.4-3.4-5.4-6.3-9-8.3-1.8-.9-3.7-1.7-5.7-2-.5-.1-1-.1-1.5-.2-.6 0-1.1-.1-1.6 0-1 0-2 0-3 .3-2 .3-3.9 1.1-5.5 2.2-1.7 1.2-3 2.7-4.1 4.4-2.1 3.5-3.1 7.5-3.4 11.5-.1 2.1 0 4.1.5 6 .2 1 .6 2 1.3 2.3h.5a.68.68 0 00.5-.2c.4-.2.6-.5.8-1 .3-.8.4-1.8.3-2.8a7.88 7.88 0 00-.7-2.8c-.8-1.8-2.2-3.4-4.1-4.2-1.8-.7-3.9-.8-5.8-.1-1.8.6-3.5 1.9-4.8 3.5-2.7 3-4.6 6.8-5.7 10.8zm-92.4 25.9c1-1.8 2.4-3.4 4.1-4.6 1.6-1.3 3.5-2.2 5.6-2.7 2-.5 4.2-.5 6.2.1s3.9 1.8 5.4 3.3c1.4 1.6 2.5 3.4 3.3 5.4.7 1.9 1.2 4 1 6.2-.1 1-.3 2.2-1.1 3.1-.5.5-1.1.8-1.7.8-.6 0-1.2-.1-1.7-.4-.6-.3-1-.8-1.3-1.3-.2-.6-.3-1.2-.4-1.7 0-1.1.2-2.2.6-3.2.6-2 1.7-3.9 3-5.5 1.3-1.7 2.9-3.1 4.6-4.4 3.3-2.4 7.7-3.8 11.9-3.3 2.1.3 4.1.9 5.9 2 1.9 1 3.5 2.4 4.8 4.1 1.3 1.6 2.3 3.4 3 5.3.8 2 1.4 4 1.7 6-.9-4-2.5-7.9-5.1-11-1.3-1.6-2.9-2.9-4.7-3.8-1.7-1-3.7-1.5-5.7-1.8-4-.4-8.1.9-11.3 3.3-3.2 2.3-5.9 5.7-7.2 9.4-.3.9-.5 1.9-.5 2.8 0 1 .4 1.9 1.1 2.3.4.2.8.2 1.3.2.4 0 .733-.133 1-.4.6-.6.8-1.6.9-2.6.2-1.9-.2-4-.9-5.8-.7-1.9-1.8-3.6-3.1-5.1-1.4-1.5-3.1-2.6-5-3.2-1.9-.7-4-.7-5.9-.3-4 .8-7.6 3.3-9.8 6.8zM88 97.2c-.2-4.1-1-8.3-2.9-11.9-1-1.7-2.3-3.4-3.9-4.5-1.7-1.1-3.8-1.5-5.7-1.2-2 .3-3.7 1.5-4.9 3a9.81 9.81 0 00-1.4 2.6c-.3.9-.5 1.9-.4 2.8.1.5.3.9.5 1.2.133.133.3.233.5.3.1 0 .2 0 .3.1h.2c.7-.2 1.4-1.1 1.8-1.9 1-1.7 1.5-3.7 1.9-5.7.7-4 .7-8.2-.6-12-.6-1.9-1.5-3.8-2.9-5.3-1.3-1.4-2.9-2.7-4.8-3.4-.9-.5-1.9-.8-2.9-1.1-.4-.2-1-.2-1.4-.3-.5 0-1-.2-1.6-.2-2-.1-4 .1-6 .6-3.9 1.1-7.6 3.2-10.7 5.9 1.5-1.5 3.1-2.7 4.9-3.8 1.8-1 3.7-2 5.7-2.5 2-.6 4.1-.9 6.2-.8.5 0 1 .1 1.6.2.5.1 1 .1 1.5.2 1 .3 2.1.6 3 1.1 2 .7 3.8 2 5.2 3.6 1.4 1.6 2.4 3.5 3.1 5.5 1.3 4 1.4 8.3.7 12.5-.4 2-1 4.1-2 6-.267.467-.6.9-1 1.3s-.8.9-1.5 1c-.4 0-.7 0-1-.1-.3-.2-.6-.4-.8-.6-.5-.5-.7-1.1-.8-1.6-.1-1.2.1-2.3.5-3.3.333-1 .833-1.933 1.5-2.8 1.3-1.7 3.3-3 5.5-3.3 2.1-.3 4.3.3 6.1 1.5 1.8 1.2 3 3 4 4.8.9 1.9 1.5 3.9 1.9 5.9.4 2.1.6 4.1.6 6.2zm220.8 52.2c-4.1-.9-8.3-1-12.2 0-2 .5-3.9 1.4-5.4 2.8-1.4 1.3-2.3 3.2-2.5 5.2-.1 2 .6 3.9 1.8 5.4.667.8 1.4 1.467 2.2 2 .8.5 1.8.9 2.7 1 .4.1.9 0 1.2-.2.2-.067.333-.2.4-.4.1-.1.1-.2.2-.2v-.3c.1-.7-.7-1.5-1.4-2.2-1.4-1.3-3.2-2.3-5.1-3.1-3.7-1.6-7.8-2.6-11.8-2.2-2 .1-4 .6-5.8 1.5-1.7 1-3.3 2.3-4.5 3.9-.7.8-1.1 1.7-1.7 2.6-.2.4-.4.9-.6 1.3-.2.5-.4 1-.5 1.5-.7 1.9-.9 3.9-.9 6 .1 4.1 1.3 8.1 3.3 11.8-1.1-1.8-1.9-3.7-2.6-5.7-.6-2-1.1-4-1.2-6.1 0-2.1.1-4.2.8-6.2.1-.6.3-1 .5-1.5s.3-1 .6-1.5c.6-.9 1-1.8 1.7-2.6 1.2-1.8 2.9-3.2 4.7-4.2 1.9-1 4-1.6 6.1-1.8 4.3-.3 8.5.6 12.3 2.3 1.9.9 3.8 1.9 5.4 3.3.4.4.767.833 1.1 1.3.3.5.6 1 .6 1.7-.1.4-.2.7-.4 1-.2.2-.4.4-.7.6-.6.3-1.2.4-1.8.3-1.1-.1-2.2-.6-3.1-1.1a10.257 10.257 0 01-2.3-2.2c-1.4-1.7-2.2-3.9-1.9-6.1.2-2.1 1.2-4.2 2.8-5.6 1.6-1.4 3.6-2.3 5.6-2.7 2.1-.5 4.2-.6 6.2-.6 2.1.1 4.2.4 6.2 1zm-61.9-64.7c-.7-2.4-.8-4.9-.4-7.4.4-2.4 1.2-4.8 2.5-6.9 1.4-2.2 3.2-4 5.5-5.1 2.2-1.2 4.8-1.7 7.3-1.6 2.5 0 5 .7 7.3 1.7 2.3 1.1 4.4 2.5 6.1 4.5.8 1 1.5 2.1 1.6 3.6 0 .7-.3 1.4-.8 2-.5.4-1.1.8-1.8 1-.7.3-1.4.2-2.1-.1-.7-.2-1.2-.6-1.7-1.1-.9-.9-1.6-2-2.2-3.1-1.1-2.3-1.7-4.8-2-7.3-.2-2.5-.2-5 .3-7.5.8-4.9 3.3-9.6 7.4-12.7 2-1.5 4.2-2.7 6.7-3.3 2.4-.7 4.9-.8 7.4-.5 2.5.3 4.9 1 7.2 2 2.2 1 4.4 2.2 6.3 3.7-4-2.7-8.7-4.7-13.5-5.2-2.5-.2-4.9-.1-7.2.6-2.4.7-4.5 1.9-6.4 3.3-1.9 1.6-3.5 3.4-4.7 5.5-1.2 2.1-1.9 4.4-2.3 6.8-.8 4.8-.3 9.8 1.7 14.2.5 1 1.1 2.1 2 2.8.8.8 1.9 1.4 2.9 1 .4-.1.9-.4 1.3-.8.333-.333.5-.767.5-1.3 0-1.1-.6-2.2-1.3-3.1-1.6-1.8-3.6-3.2-5.8-4.2-2.2-1-4.5-1.6-6.9-1.7-2.4-.1-4.9.3-7 1.4-2.2 1-4 2.7-5.3 4.8-2.7 4-3.7 9.2-2.6 14z" fill="#263238"/><path fill-rule="evenodd" clip-rule="evenodd" d="M138.1 345.7c-1.4 4.7-6.5 7.3-11.2 5.8-4.7-1.5-7.3-6.5-5.9-11.2 1.5-4.7 6.6-7.4 11.3-5.9 4.7 1.5 7.3 6.6 5.8 11.3zm-7-7.4c-2.6-.8-5.4.6-6.2 3.2-.8 2.6.6 5.4 3.2 6.2 2.6.8 5.4-.7 6.2-3.2.8-2.6-.6-5.4-3.2-6.2z" fill="#455A64"/><path d="M127.7 354l-2.9-1 .6-2.3 3.3 1-1 2.3zm-7.2-4.4l-1.4-2.8 2.1-1.2 1.5 3-2.2 1zm-2-8.3l.9-2.9 2.4.6-1 3.3-2.3-1zm4.4-7.2l2.7-1.4 1.3 2.1-3.1 1.5-.9-2.2zm8.2-2l2.9.9-.5 2.4-3.3-1.1.9-2.2zm7.2 4.4l1.5 2.7-2.1 1.3-1.6-3.1 2.2-.9zm2.1 8.2l-1 2.9-2.3-.5 1-3.3 2.3.9zm-4.4 7.2l-2.7 1.5-1.3-2.1 3-1.6 1 2.2z" fill="#455A64"/><path fill-rule="evenodd" clip-rule="evenodd" d="M277.5 313.2c-6.1-4.5-7.3-13.1-2.8-19.2s13.1-7.3 19.1-2.8c6.1 4.5 7.4 13.1 2.9 19.1-4.5 6.1-13.1 7.4-19.2 2.9zm12-16.1c-2.9-2.2-6.9-1.6-9 1.3-2.1 2.8-1.5 6.8 1.4 8.9 2.8 2.1 6.8 1.5 8.9-1.3 2.1-2.8 1.5-6.8-1.3-8.9z" fill="#263238"/><path d="M277.5 317.1l-3.8-2.8 2-3.1 4.3 3.1-2.5 2.8zm-8.3-9.9l-.6-4.7 3.6-.8.8 5.2-3.8.3zm1.199-12.9l2.8-3.8 3.2 2-3.1 4.2-2.9-2.4zm10-8.3l4.6-.7.9 3.7-5.2.7-.3-3.7zm12.901 1.2l3.8 2.8-2 3.2-4.3-3.2 2.5-2.8zm8.3 10l.6 4.6-3.6.8-.8-5.2 3.8-.2zm-1.201 12.8l-2.8 3.8-3.2-2 3.1-4.2 2.9 2.4zm-10 8.3l-4.6.7-.9-3.6 5.2-.8.3 3.7z" fill="#263238"/><path fill-rule="evenodd" clip-rule="evenodd" d="M282.5 298.5l4.6-.7 2.9 3.7-1.7 4.3-4.6.7-2.9-3.7 1.7-4.3zm1.7 2.8c-.5.7-.4 1.6.3 2.1s1.6.4 2.1-.3.3-1.6-.3-2.1c-.7-.5-1.6-.3-2.1.3zm29.1-251.8c-1.3 4.1-5.7 6.4-9.8 5.1-4.2-1.3-6.5-5.7-5.2-9.8 1.3-4.1 5.7-6.4 9.9-5.1 4.1 1.3 6.4 5.7 5.1 9.8zm-6.2-6.5c-2.2-.7-4.7.6-5.4 2.9-.7 2.2.6 4.6 2.8 5.4 2.3.7 4.7-.6 5.4-2.9.7-2.2-.5-4.6-2.8-5.4z" fill="#263238"/><path d="M304.2 56.8l-2.6-.8.5-2.1 2.9.9-.8 2zm-6.3-3.9l-1.3-2.4 1.8-1.1 1.4 2.7-1.9.8zm-1.8-7.2l.8-2.5 2.1.4-.9 2.9-2-.8zm3.799-6.3l2.4-1.3 1.2 1.9-2.7 1.3-.9-1.9zm7.201-1.8l2.6.8-.5 2.1-2.9-.9.8-2zm6.4 3.9l1.2 2.3-1.8 1.2-1.4-2.7 2-.8zm1.699 7.2l-.8 2.5-2-.5.9-2.8 1.9.8zm-3.8 6.3l-2.4 1.2-1.1-1.8 2.7-1.4.8 2z" fill="#263238"/><path fill-rule="evenodd" clip-rule="evenodd" d="M275.1 192.4c-1.3 4.1-5.7 6.4-9.8 5.1-4.2-1.3-6.5-5.7-5.2-9.8 1.3-4.2 5.7-6.5 9.9-5.2 4.1 1.3 6.4 5.7 5.1 9.9zm-6.2-6.5c-2.3-.7-4.7.6-5.4 2.8-.7 2.3.6 4.7 2.8 5.4 2.3.7 4.7-.5 5.4-2.8.7-2.3-.5-4.7-2.8-5.4z" fill="#263238"/><path d="M266 199.6l-2.6-.8.5-2.1 2.9.9-.8 2zm-6.4-3.8l-1.2-2.4 1.8-1.1 1.4 2.6-2 .9zm-1.7-7.2l.8-2.6 2.1.5-.9 2.9-2-.8zm3.8-6.4l2.4-1.2 1.1 1.8-2.6 1.4-.9-2zm7.2-1.7l2.6.8-.5 2.1-2.9-.9.8-2zm6.4 3.8l1.2 2.4-1.8 1.1-1.4-2.6 2-.9zm1.7 7.2l-.8 2.6-2.1-.5.9-2.9 2 .8zm-3.8 6.4l-2.4 1.2-1.1-1.8 2.6-1.4.9 2z" fill="#263238"/><path fill-rule="evenodd" clip-rule="evenodd" d="M35.8 82.7c-6.4-1.6-10.2-8-8.7-14.3 1.5-6.3 7.9-10.2 14.3-8.7 6.3 1.6 10.2 8 8.6 14.3-1.5 6.3-7.9 10.2-14.2 8.7zm4.1-16.8c-3-.8-6 1-6.7 4-.7 3 1.1 5.9 4.1 6.7 2.9.7 5.9-1.1 6.6-4.1.7-3-1.1-5.9-4-6.6z" fill="#263238"/><path d="M37.1 85.8l-3.9-1 .5-3.2 4.4 1.1-1 3.1zm-9.9-5.2l-2.1-3.4 2.6-1.9 2.4 3.9-2.9 1.4zM23.8 70l1-3.9 3.2.5-1.1 4.4-3.1-1zm5.2-9.9l3.4-2.1 1.9 2.6-3.9 2.4-1.4-2.9zm10.6-3.3l3.9.9-.5 3.2-4.4-1.1 1-3zm9.9 5.1l2.1 3.4-2.6 1.9-2.4-3.9 2.9-1.4zm3.3 10.6l-.9 3.9-3.2-.5 1.1-4.4 3 1zm-5.1 9.9l-3.4 2.1-1.9-2.6 3.9-2.4 1.4 2.9z" fill="#263238"/><path fill-rule="evenodd" clip-rule="evenodd" d="M34.8 69.3l3.4-2.1 3.6 2 .1 4-3.5 2.1-3.5-1.9-.1-4.1zm2.3 1.6c-.2.7.2 1.4.9 1.5.7.2 1.4-.2 1.6-.9.1-.7-.3-1.4-1-1.5-.7-.2-1.3.2-1.5.9z" fill="#263238"/><path d="M316.6 195.9c-2.7-4.1-4.2-8.7-4.2-13.5 0-17.2 18.9-31.2 42.1-31.2 23.3 0 42.2 14 42.2 31.2s-18.9 31.1-42.2 31.1c-11.2 0-21.5-3.3-29-8.6l-14.6 3.7 5.7-12.7z" fill="#fff"/><path fill-rule="evenodd" clip-rule="evenodd" d="M316.6 195.9c-2.5-3.7-4.1-8.2-4.3-12.8-.1-4.6 1-9.2 3.3-13.2s5.6-7.3 9.3-10c3.7-2.7 7.9-4.8 12.2-6.2 4.4-1.5 8.9-2.4 13.5-2.7 4.6-.4 9.2-.1 13.7.7 1.2.2 2.3.3 3.4.6l3.3.9 3.3 1.2c1.1.4 2.1.9 3.2 1.4 4.1 1.9 8 4.5 11.3 7.8 3.3 3.2 5.9 7.2 7.3 11.7 1.4 4.4 1.5 9.3.1 13.7-1.3 4.5-3.9 8.5-7.1 11.8-3.2 3.3-7.1 6-11.2 8s-8.6 3.3-13.1 4.2c-4.5.7-9.1 1.1-13.7.8-4.6-.3-9.1-1.2-13.5-2.6-4.3-1.4-8.5-3.4-12.2-6.1l-14.4 3.6h-.2v-.2l5.8-12.6zm8.9 9.2h.1-.2.1zm-8.9-9.2l-5.4 12.5 14.3-3.7.1-.1.1.1c7.4 5.2 16.5 7.8 25.5 8.3 4.5.3 9.1-.1 13.5-.9s8.8-2.1 12.9-4.1c4-2 7.8-4.6 10.9-7.8 3.1-3.3 5.6-7.1 6.8-11.5 1.3-4.2 1.2-8.9-.1-13.1-1.3-4.3-3.9-8.2-7-11.3-3.2-3.2-7-5.8-11.1-7.7-1-.5-2-1-3.1-1.4l-3.2-1.1-3.2-.9c-1.1-.3-2.2-.4-3.4-.7-4.4-.7-9-1-13.5-.7-4.5.3-9 1.1-13.3 2.5-4.3 1.4-8.4 3.4-12.1 6-3.7 2.7-6.9 6-9.2 9.9-2.4 3.8-3.6 8.4-3.5 12.9.1 4.5 1.6 9 4 12.8zm-5.4 12.5l-.2.1.1.1.1-.2z" fill="#263238"/><path d="M332.9 187.5v2.3h-9.5v-13.6h9.3v2.3h-6.6v3.3h5.7v2.1h-5.7v3.6h6.8z" fill="#263238"/><path fill-rule="evenodd" clip-rule="evenodd" d="M334.9 189.8v-13.6h6c.667 0 1.267.133 1.8.4.533.267.967.6 1.3 1 .4.467.7.967.9 1.5.267.533.4 1.067.4 1.6a4.38 4.38 0 01-.7 2.4c-.467.733-1.067 1.267-1.8 1.6l3.1 5.1h-3l-2.7-4.6h-2.6v4.6h-2.7zm2.6-6.9h3.3c.267 0 .5-.067.7-.2.2-.067.367-.2.5-.4.2-.2.333-.433.4-.7.067-.267.1-.567.1-.9 0-.333-.033-.633-.1-.9a6.505 6.505 0 00-.4-.7c-.2-.2-.4-.333-.6-.4-.2-.133-.433-.2-.7-.2h-3.2v4.4zm10.2 6.9v-13.6h6c.6 0 1.166.133 1.7.4.533.267 1 .6 1.4 1 .333.467.633.967.9 1.5.2.533.3 1.067.3 1.6 0 .867-.234 1.667-.7 2.4-.4.733-1 1.267-1.8 1.6l3.1 5.1h-2.9l-2.8-4.6h-2.6v4.6h-2.6zm2.6-6.9h3.3c.266 0 .5-.067.7-.2.2-.067.4-.2.6-.4.133-.2.233-.433.3-.7.133-.267.2-.567.2-.9 0-.333-.067-.633-.2-.9-.067-.267-.2-.5-.4-.7-.2-.2-.4-.333-.6-.4-.2-.133-.434-.2-.7-.2h-3.2v4.4zm15.9 7c-1 0-1.9-.2-2.7-.6-.8-.4-1.5-.933-2.1-1.6-.6-.6-1.067-1.333-1.4-2.2-.267-.8-.4-1.633-.4-2.5 0-.933.167-1.8.5-2.6.333-.867.8-1.6 1.4-2.2.6-.667 1.3-1.167 2.1-1.5.8-.4 1.667-.6 2.6-.6 1 0 1.9.2 2.7.6.8.4 1.5.933 2.1 1.6.6.667 1.033 1.4 1.3 2.2.333.8.5 1.633.5 2.5a6.7 6.7 0 01-.5 2.6c-.333.867-.8 1.6-1.4 2.2-.533.6-1.233 1.1-2.1 1.5-.8.4-1.667.6-2.6.6zm-4-6.9c0 .6.1 1.167.3 1.7.2.533.467 1 .8 1.4.333.467.733.833 1.2 1.1.533.2 1.1.3 1.7.3.667 0 1.233-.133 1.7-.4.467-.2.867-.533 1.2-1 .333-.4.6-.9.8-1.5.2-.533.3-1.067.3-1.6 0-.6-.1-1.167-.3-1.7a6.519 6.519 0 00-.8-1.5 4.362 4.362 0 00-1.2-1c-.533-.267-1.1-.4-1.7-.4-.667 0-1.233.133-1.7.4-.533.267-.933.633-1.2 1.1-.333.4-.6.867-.8 1.4a4.8 4.8 0 00-.3 1.7zm12.6 6.8v-13.6h6.1c.6 0 1.166.133 1.7.4.533.267 1 .6 1.4 1 .333.467.633.967.9 1.5.2.533.3 1.067.3 1.6 0 .867-.234 1.667-.7 2.4-.4.733-1 1.267-1.8 1.6l3.1 5.1h-2.9l-2.8-4.6h-2.6v4.6h-2.7zm2.6-6.9h3.3c.266 0 .5-.067.7-.2.2-.067.4-.2.6-.4.133-.2.233-.433.3-.7.133-.267.2-.567.2-.9 0-.333-.067-.633-.2-.9-.067-.267-.2-.5-.4-.7-.2-.2-.4-.333-.6-.4-.2-.133-.434-.2-.7-.2h-3.2v4.4z" fill="#263238"/></g><defs><clipPath id="clip0_540_596"><path fill="#fff" d="M0 0h412v427H0z"/></clipPath></defs></svg>